<svg xmlns="http://www.w3.org/2000/svg" viewBox="0 0 96 96" role="img" aria-label="Wikist">
  <defs>
    <linearGradient id="g" x1="12" x2="84" y1="16" y2="80" gradientUnits="userSpaceOnUse">
      <stop stop-color="#38e8ff"/>
      <stop offset=".48" stop-color="#7cffb4"/>
      <stop offset="1" stop-color="#ffd166"/>
    </linearGradient>
  </defs>
  <rect width="96" height="96" rx="18" fill="#0a0d0d"/>
  <path d="M21 26h54v6H21zm8 14h38v5H29zm-8 16h54v6H21zm8 14h30v5H29z" fill="#edf7f2" opacity=".92"/>
  <path d="M69 24c-8 8-12 16-12 24s4 16 12 24M27 24c8 8 12 16 12 24s-4 16-12 24" fill="none" stroke="url(#g)" stroke-width="5" stroke-linecap="round"/>
  <circle cx="48" cy="48" r="7" fill="url(#g)"/>
  <path d="M48 15v12M48 69v12M15 48h12M69 48h12" stroke="#38e8ff" stroke-width="4" stroke-linecap="round" opacity=".8"/>
</svg>
